<?xml version="1.0" encoding="utf-8"?>
<svg data-name="Layer 1" viewBox="5.431 0 92.831 98.497" x="0px" y="0px" xmlns="http://www.w3.org/2000/svg">
  <title>scan</title>
  <path d="M10.66,36.1a2.86,2.86,0,0,1-2.85-2.85V10.66a2.86,2.86,0,0,1,5.71,0V33.25A2.86,2.86,0,0,1,10.66,36.1Z"/>
  <path d="M33.25,13.52H10.66a2.86,2.86,0,0,1,0-5.71H33.25a2.86,2.86,0,0,1,0,5.71Z"/>
  <path d="M10.66,92.19a2.86,2.86,0,0,1-2.85-2.85V66.75a2.86,2.86,0,0,1,5.71,0V89.34A2.86,2.86,0,0,1,10.66,92.19Z"/>
  <path d="M33.25,92.19H10.66a2.86,2.86,0,0,1,0-5.71H33.25a2.86,2.86,0,0,1,0,5.71Z"/>
  <path d="M89.34,36.1a2.86,2.86,0,0,1-2.86-2.85V10.66a2.86,2.86,0,0,1,5.71,0V33.25A2.86,2.86,0,0,1,89.34,36.1Z"/>
  <path d="M89.34,13.52H66.75a2.86,2.86,0,0,1,0-5.71H89.34a2.86,2.86,0,0,1,0,5.71Z"/>
  <path d="M89.34,92.19a2.86,2.86,0,0,1-2.86-2.85V66.75a2.86,2.86,0,0,1,5.71,0V89.34A2.86,2.86,0,0,1,89.34,92.19Z"/>
  <path d="M89.34,92.19H66.75a2.86,2.86,0,0,1,0-5.71H89.34a2.86,2.86,0,0,1,0,5.71Z"/>
  <g transform="matrix(0.752185, 0, 0, 0.752185, 11.406111, 10.049152)" style="">
    <path d="M 72.331 54.388 L 53.472 54.388 L 53.472 41.382 C 56.983 41.476 64.056 41.068 68.408 36.716 C 73.017 32.107 73.207 24.43 73.055 21.181 C 73.011 20.286 72.308 19.581 71.41 19.537 C 68.162 19.385 60.485 19.575 55.876 24.183 C 52.238 27.821 51.359 33.356 51.223 37.133 C 51.213 37.146 51.2 37.158 51.194 37.174 C 51.188 37.158 51.175 37.143 51.169 37.13 C 51.033 33.353 50.15 27.818 46.516 24.18 C 41.907 19.571 34.227 19.382 30.981 19.533 C 30.086 19.578 29.381 20.28 29.337 21.178 C 29.185 24.427 29.374 32.104 33.983 36.713 C 38.336 41.065 45.405 41.473 48.919 41.378 L 48.919 54.385 L 30.057 54.388 C 28.194 54.388 26.685 55.9 26.685 57.76 L 26.685 61.825 C 26.685 63.688 28.197 65.197 30.057 65.197 L 72.323 65.197 C 74.186 65.197 75.695 63.685 75.695 61.825 L 75.695 57.76 C 75.701 55.897 74.189 54.388 72.33 54.388 L 72.331 54.388 Z" style=""/>
    <path d="M 36.446 81.458 C 36.804 83.157 38.303 84.375 40.04 84.375 L 62.707 84.375 C 64.443 84.375 65.939 83.157 66.296 81.458 L 70.007 63.77 L 32.739 63.77 L 36.446 81.458 Z" style=""/>
  </g>
</svg>